<?xml version="1.0" encoding="UTF-8" standalone="no"?>
<svg width="107px" height="29px" viewBox="0 0 107 29" version="1.1" xmlns="http://www.w3.org/2000/svg" xmlns:xlink="http://www.w3.org/1999/xlink">
    <!-- Generator: Sketch 3.7.2 (28276) - http://www.bohemiancoding.com/sketch -->
    <title>Page 1</title>
    <desc>Created with Sketch.</desc>
    <defs></defs>
    <g id="Page-1" stroke="none" stroke-width="1" fill="none" fill-rule="evenodd">
        <g id="style-1-lg" transform="translate(-1100.000000, -775.000000)" fill="#E50813">
            <path d="M1171.19216,775 L1166.68648,775 L1166.68648,800.19933 C1170.78142,800.340246 1174.85922,800.546821 1178.92023,800.817565 L1178.92023,796.377956 C1176.35144,796.206598 1173.77527,796.061318 1171.19216,795.941142 L1171.19216,775 Z M1207,775.002515 L1202.05094,775.002515 L1198.78825,782.564563 L1195.85678,775.002515 L1190.982,775.002515 L1196.22059,788.514928 L1190.5016,801.770971 C1192.08376,801.925286 1193.66177,802.089919 1195.23762,802.263947 L1198.56366,794.556414 L1201.85761,803.052821 C1203.57329,803.273462 1205.28498,803.5036 1206.99307,803.747393 L1207,803.744518 L1201.13039,788.606152 L1207,775.002515 Z M1151.21982,799.979151 L1155.72576,799.978125 L1155.72576,789.727733 L1161.83357,789.727733 L1161.83357,785.288073 L1155.72576,785.288073 L1155.72576,779.48232 L1163.79834,779.48232 L1163.79834,775.002772 L1151.21982,775.002772 L1151.21982,799.979151 Z M1134.3938,779.482063 L1139.10965,779.482063 L1139.10965,800.243068 C1140.60901,800.186496 1142.11145,800.139832 1143.61543,800.100458 L1143.61543,779.482063 L1148.33112,779.482063 L1148.33112,775.002515 L1134.3938,775.002515 L1134.3938,779.482063 Z M1118.98941,801.533441 C1123.14226,801.156072 1127.31436,800.845081 1131.50535,800.60365 L1131.50535,796.163476 C1128.82758,796.318253 1126.15751,796.50147 1123.49519,796.710868 L1123.49519,789.989339 C1125.24209,789.971885 1127.54224,789.91865 1129.58006,789.943958 L1129.58006,785.503939 C1127.95205,785.500037 1125.33552,785.526732 1123.49519,785.550295 L1123.49519,779.48232 L1131.50535,779.48232 L1131.50535,775.002772 L1118.98941,775.002772 L1118.98941,801.533441 Z M1110.15075,791.26965 L1104.28226,775.002515 L1100,775.002515 L1100,803.747957 C1101.49905,803.534606 1103.00093,803.330239 1104.50578,803.13424 L1104.50578,787.502538 L1109.72389,802.492442 C1111.36509,802.302089 1113.00927,802.121798 1114.65658,801.952339 L1114.65658,775.002515 L1110.15075,775.002515 L1110.15075,791.26965 Z M1182.63493,801.08487 C1184.13901,801.199964 1185.64088,801.323478 1187.14086,801.457002 L1187.14086,775.002515 L1182.63493,775.002515 L1182.63493,801.08487 Z" id="Page-1"></path>
        </g>
    </g>
</svg>